<svg xmlns="http://www.w3.org/2000/svg" width="242" height="63" viewBox="0 0 242 63" fill="none"><g clip-path="url(#clip0_2_1299)"><path d="M99.7335 30.1896L96.3575 39.0977H90.6472L103.553 5.93213H110.411L123.317 39.0977H117.607L114.231 30.1896H99.7335ZM112.254 25.1211L106.968 11.2406L101.682 25.1211H112.254Z" fill="black"></path><path d="M128.68 5.93213H134.062V39.0977H128.68V5.93213Z" fill="black"></path><path d="M161.431 39.0977L153.579 26.4938L145.824 39.0977H139.448L150.3 21.9918L139.921 5.93213H146.345L153.724 17.7777L161.103 5.93213H167.479L157.003 22.3278L167.807 39.0977H161.431Z" fill="black"></path><path d="M169.855 22.5104C169.855 12.6999 177.137 5.35645 187.043 5.35645C194.76 5.35645 200.895 10.0025 202.988 16.866H197.229C195.464 12.9783 191.702 10.4729 186.995 10.4729C180.185 10.4729 175.285 15.5893 175.285 22.5104C175.285 29.4315 180.185 34.548 186.995 34.548C191.712 34.548 195.474 32.033 197.229 28.1548H202.988C200.895 35.028 194.75 39.6644 187.043 39.6644C177.137 39.6644 169.855 32.3209 169.855 22.5104Z" fill="black"></path><path d="M241.99 22.5104C241.942 32.2729 234.467 39.6644 224.705 39.6644C214.944 39.6644 207.42 32.2729 207.42 22.5104C207.42 12.7479 214.944 5.35645 224.705 5.35645C234.467 5.35645 241.942 12.7479 241.99 22.5104ZM212.851 22.5104C212.851 29.4315 217.944 34.548 224.705 34.548C231.467 34.548 236.512 29.4315 236.512 22.5104C236.512 15.5893 231.419 10.4729 224.705 10.4729C217.992 10.4729 212.851 15.5893 212.851 22.5104Z" fill="black"></path><path d="M13.0699 22.5098H37.5893L24.529 45.0298H0L13.0699 22.5098Z" fill="black"></path><path d="M50.6459 45.031L43.3152 32.3887L55.5845 11.251L75.1749 45.031H50.6459Z" fill="black"></path><path d="M37.5889 22.5104L24.5287 0H49.048L55.5878 11.2504H44.119L37.5889 22.5104Z" fill="black"></path><path d="M181.352 52.7171C180.183 52.7171 179.263 53.0961 178.59 53.8541C177.928 54.6011 177.598 55.6118 177.598 56.8864C177.598 58.1606 177.934 59.1935 178.606 59.9845C179.29 60.7645 180.205 61.1546 181.352 61.1546C182.366 61.1546 183.205 60.8961 183.866 60.3799C184.528 59.8526 184.919 59.1167 185.04 58.1717H181.898V56.3588H186.976V62.753H185.173V61.0721C184.798 61.6544 184.269 62.1156 183.585 62.4562C182.912 62.7857 182.13 62.9507 181.236 62.9507C179.549 62.9507 178.166 62.3904 177.085 61.2697C176.015 60.1381 175.48 58.6772 175.48 56.8864C175.48 55.0956 176.026 53.6344 177.118 52.5027C178.221 51.3711 179.632 50.8054 181.352 50.8054C182.664 50.8054 183.805 51.135 184.776 51.7942C185.746 52.4533 186.419 53.3596 186.794 54.5132L184.859 55.1888C184.627 54.4087 184.202 53.8047 183.585 53.3763C182.967 52.9368 182.223 52.7171 181.352 52.7171ZM200.598 62.753H198.249L195.867 58.1386H193.171V62.753H191.17V51.0525H196.33C197.587 51.0525 198.547 51.3768 199.208 52.0249C199.87 52.673 200.2 53.5298 200.2 54.5957C200.2 55.3978 200.007 56.0897 199.622 56.672C199.236 57.2434 198.662 57.6497 197.901 57.8915L200.598 62.753ZM197.72 55.8316C198.028 55.524 198.183 55.112 198.183 54.5957C198.183 54.0791 198.028 53.6674 197.72 53.3595C197.411 53.052 196.953 52.8984 196.347 52.8984H193.171V56.293H196.347C196.953 56.293 197.411 56.1391 197.72 55.8316ZM206.533 53.8704C205.794 54.6395 205.425 55.6502 205.425 56.9028C205.425 58.1553 205.794 59.1661 206.533 59.9351C207.272 60.7041 208.22 61.0884 209.378 61.0884C210.535 61.0884 211.484 60.7041 212.222 59.9351C212.961 59.1661 213.331 58.1553 213.331 56.9028C213.331 55.6502 212.961 54.6395 212.222 53.8704C211.484 53.1014 210.535 52.7171 209.378 52.7171C208.22 52.7171 207.272 53.1014 206.533 53.8704ZM205.011 61.2697C203.875 60.1054 203.308 58.6495 203.308 56.9028C203.308 55.156 203.875 53.7058 205.011 52.5521C206.147 51.3878 207.602 50.8054 209.378 50.8054C211.153 50.8054 212.609 51.3878 213.744 52.5521C214.88 53.7058 215.448 55.156 215.448 56.9028C215.448 58.6495 214.88 60.1054 213.744 61.2697C212.609 62.4234 211.153 63.0001 209.378 63.0001C207.602 63.0001 206.147 62.4234 205.011 61.2697ZM227.509 61.6982C226.594 62.566 225.425 63.0001 224.002 63.0001C222.58 63.0001 221.411 62.566 220.496 61.6982C219.581 60.8303 219.123 59.5778 219.123 57.9409V51.0525H221.125V58.0234C221.125 58.9901 221.367 59.7538 221.852 60.3141C222.349 60.8744 223.065 61.1546 224.002 61.1546C224.94 61.1546 225.651 60.8744 226.136 60.3141C226.632 59.7538 226.88 58.9901 226.88 58.0234V51.0525H228.882V57.9409C228.882 59.5778 228.424 60.8303 227.509 61.6982ZM235.202 56.293H238.08C238.72 56.293 239.194 56.1448 239.503 55.8483C239.822 55.5514 239.982 55.1393 239.982 54.6121C239.982 54.0848 239.822 53.6674 239.503 53.3595C239.183 53.052 238.709 52.8984 238.08 52.8984H235.202V56.293ZM235.202 58.1386V62.753H233.201V51.0525H238.064C239.398 51.0525 240.385 51.3821 241.024 52.0412C241.675 52.6894 242 53.5466 242 54.6121C242 55.6669 241.669 56.5181 241.008 57.1666C240.346 57.8147 239.365 58.1386 238.064 58.1386H235.202Z" fill="black"></path></g><defs><clipPath id="clip0_2_1299"><rect width="242" height="63" fill="white"></rect></clipPath></defs></svg>